<svg xmlns="http://www.w3.org/2000/svg" xmlns:xlink="http://www.w3.org/1999/xlink" version="1.1" width="256" height="256" viewBox="0 0 256 256" xml:space="preserve">

<defs>
</defs>
<g style="stroke: none; stroke-width: 0; stroke-dasharray: none; stroke-linecap: butt; stroke-linejoin: miter; stroke-miterlimit: 10; fill: none; fill-rule: nonzero; opacity: 1;" transform="translate(1.4065934065934016 1.4065934065934016) scale(2.81 2.81)" >
	<path d="M 53.981 61.864 c -0.718 -0.983 -2.06 -1.329 -3.127 -0.743 c -2.367 1.299 -5.015 1.977 -7.764 1.977 c -6.894 0 -12.779 -4.34 -15.108 -10.425 h 5.714 c 0.703 0 1.35 -0.385 1.685 -1.004 c 0.334 -0.618 0.303 -1.371 -0.082 -1.959 l -15.89 -24.295 c -0.354 -0.541 -0.957 -0.867 -1.603 -0.867 c -0.646 0 -1.249 0.326 -1.603 0.867 L 0.312 49.71 c -0.385 0.588 -0.416 1.341 -0.082 1.959 c 0.335 0.619 0.981 1.004 1.685 1.004 h 7.286 c 2.751 16.222 16.895 28.618 33.888 28.618 c 6.45 0 12.643 -1.763 18.063 -5.121 c 1.218 -0.755 1.519 -2.403 0.674 -3.56 L 53.981 61.864 z" style="stroke: none; stroke-width: 1; stroke-dasharray: none; stroke-linecap: butt; stroke-linejoin: miter; stroke-miterlimit: 10; fill: rgb(248,174,8); fill-rule: nonzero; opacity: 1;" transform=" matrix(1 0 0 1 0 0) " stroke-linecap="round" />
	<path d="M 89.769 37.561 c -0.334 -0.619 -0.981 -1.004 -1.684 -1.004 h -7.424 C 77.6 20.714 63.634 8.709 46.91 8.709 c -5.828 0 -11.5 1.46 -16.557 4.244 c -1.251 0.689 -1.627 2.317 -0.845 3.512 l 7.29 11.134 c 0.665 1.015 1.984 1.435 3.077 0.907 c 2.18 -1.054 4.577 -1.604 7.036 -1.604 c 6.601 0 12.282 3.976 14.799 9.655 h -5.405 c -0.703 0 -1.35 0.385 -1.684 1.004 c -0.335 0.619 -0.304 1.371 0.081 1.96 l 15.89 24.295 c 0.353 0.54 0.957 0.867 1.603 0.867 c 0.646 0 1.249 -0.326 1.603 -0.867 l 15.89 -24.295 C 90.073 38.932 90.104 38.18 89.769 37.561 z" style="stroke: none; stroke-width: 1; stroke-dasharray: none; stroke-linecap: butt; stroke-linejoin: miter; stroke-miterlimit: 10; fill: rgb(59,142,204); fill-rule: nonzero; opacity: 1;" transform=" matrix(1 0 0 1 0 0) " stroke-linecap="round" />
</g>
</svg>