<svg xmlns="http://www.w3.org/2000/svg" xmlns:xlink="http://www.w3.org/1999/xlink" version="1.1" width="256" height="256" viewBox="0 0 256 256" xml:space="preserve">

<defs>
</defs>
<g style="stroke: none; stroke-width: 0; stroke-dasharray: none; stroke-linecap: butt; stroke-linejoin: miter; stroke-miterlimit: 10; fill: none; fill-rule: nonzero; opacity: 1;" transform="translate(1.4065934065934016 1.4065934065934016) scale(2.81 2.81)" >
	<path d="M 77.626 76.129 H 3.736 C 2.225 76.129 1 74.904 1 73.393 V 16.93 c 0 -1.511 1.225 -2.736 2.736 -2.736 h 73.89 c 1.511 0 2.736 1.225 2.736 2.736 v 56.463 C 80.363 74.904 79.137 76.129 77.626 76.129 z" style="stroke: none; stroke-width: 1; stroke-dasharray: none; stroke-linecap: butt; stroke-linejoin: miter; stroke-miterlimit: 10; fill: rgb(228,237,244); fill-rule: nonzero; opacity: 1;" transform=" matrix(1 0 0 1 0 0) " stroke-linecap="round" />
	<path d="M 77.626 77.13 H 3.736 C 1.676 77.13 0 75.454 0 73.394 V 16.931 c 0 -2.06 1.676 -3.736 3.736 -3.736 h 73.89 c 2.061 0 3.736 1.676 3.736 3.736 v 56.463 C 81.362 75.454 79.687 77.13 77.626 77.13 z M 3.736 15.194 C 2.779 15.194 2 15.973 2 16.931 v 56.463 c 0 0.957 0.779 1.736 1.736 1.736 h 73.89 c 0.957 0 1.736 -0.779 1.736 -1.736 V 16.931 c 0 -0.958 -0.779 -1.736 -1.736 -1.736 H 3.736 z" style="stroke: none; stroke-width: 1; stroke-dasharray: none; stroke-linecap: butt; stroke-linejoin: miter; stroke-miterlimit: 10; fill: rgb(0,0,0); fill-rule: nonzero; opacity: 1;" transform=" matrix(1 0 0 1 0 0) " stroke-linecap="round" />
	<path d="M 80.363 27.113 V 16.93 c 0 -1.511 -1.225 -2.736 -2.736 -2.736 H 3.736 C 2.225 14.194 1 15.419 1 16.93 v 10.182 H 80.363 z" style="stroke: none; stroke-width: 1; stroke-dasharray: none; stroke-linecap: butt; stroke-linejoin: miter; stroke-miterlimit: 10; fill: rgb(247,63,82); fill-rule: nonzero; opacity: 1;" transform=" matrix(1 0 0 1 0 0) " stroke-linecap="round" />
	<path d="M 81.362 28.113 H 0 V 16.931 c 0 -2.06 1.676 -3.736 3.736 -3.736 h 73.89 c 2.061 0 3.736 1.676 3.736 3.736 V 28.113 z M 2 26.113 h 77.362 v -9.182 c 0 -0.958 -0.779 -1.736 -1.736 -1.736 H 3.736 C 2.779 15.194 2 15.973 2 16.931 V 26.113 z" style="stroke: none; stroke-width: 1; stroke-dasharray: none; stroke-linecap: butt; stroke-linejoin: miter; stroke-miterlimit: 10; fill: rgb(0,0,0); fill-rule: nonzero; opacity: 1;" transform=" matrix(1 0 0 1 0 0) " stroke-linecap="round" />
	<path d="M 19.147 20.09 L 19.147 20.09 c -1.846 0 -3.343 -1.497 -3.343 -3.343 v -5.746 c 0 -1.846 1.497 -3.343 3.343 -3.343 h 0 c 1.846 0 3.343 1.497 3.343 3.343 v 5.746 C 22.49 18.593 20.994 20.09 19.147 20.09 z" style="stroke: none; stroke-width: 1; stroke-dasharray: none; stroke-linecap: butt; stroke-linejoin: miter; stroke-miterlimit: 10; fill: rgb(212,222,251); fill-rule: nonzero; opacity: 1;" transform=" matrix(1 0 0 1 0 0) " stroke-linecap="round" />
	<path d="M 62.215 20.09 L 62.215 20.09 c -1.846 0 -3.343 -1.497 -3.343 -3.343 v -5.746 c 0 -1.846 1.497 -3.343 3.343 -3.343 h 0 c 1.846 0 3.343 1.497 3.343 3.343 v 5.746 C 65.558 18.593 64.061 20.09 62.215 20.09 z" style="stroke: none; stroke-width: 1; stroke-dasharray: none; stroke-linecap: butt; stroke-linejoin: miter; stroke-miterlimit: 10; fill: rgb(212,222,251); fill-rule: nonzero; opacity: 1;" transform=" matrix(1 0 0 1 0 0) " stroke-linecap="round" />
	<path d="M 19.147 21.09 c -2.395 0 -4.343 -1.948 -4.343 -4.343 v -5.746 c 0 -2.395 1.948 -4.343 4.343 -4.343 s 4.343 1.948 4.343 4.343 v 5.746 C 23.49 19.142 21.542 21.09 19.147 21.09 z M 19.147 8.658 c -1.292 0 -2.343 1.051 -2.343 2.343 v 5.746 c 0 1.292 1.051 2.343 2.343 2.343 s 2.343 -1.051 2.343 -2.343 v -5.746 C 21.49 9.709 20.439 8.658 19.147 8.658 z" style="stroke: none; stroke-width: 1; stroke-dasharray: none; stroke-linecap: butt; stroke-linejoin: miter; stroke-miterlimit: 10; fill: rgb(0,0,0); fill-rule: nonzero; opacity: 1;" transform=" matrix(1 0 0 1 0 0) " stroke-linecap="round" />
	<path d="M 62.215 21.09 c -2.395 0 -4.343 -1.948 -4.343 -4.343 v -5.746 c 0 -2.395 1.948 -4.343 4.343 -4.343 s 4.343 1.948 4.343 4.343 v 5.746 C 66.558 19.142 64.609 21.09 62.215 21.09 z M 62.215 8.658 c -1.292 0 -2.343 1.051 -2.343 2.343 v 5.746 c 0 1.292 1.051 2.343 2.343 2.343 s 2.343 -1.051 2.343 -2.343 v -5.746 C 64.558 9.709 63.507 8.658 62.215 8.658 z" style="stroke: none; stroke-width: 1; stroke-dasharray: none; stroke-linecap: butt; stroke-linejoin: miter; stroke-miterlimit: 10; fill: rgb(0,0,0); fill-rule: nonzero; opacity: 1;" transform=" matrix(1 0 0 1 0 0) " stroke-linecap="round" />
	<path d="M 22.238 39.052 H 8.287 c -0.552 0 -1 -0.448 -1 -1 s 0.448 -1 1 -1 h 13.951 c 0.552 0 1 0.448 1 1 S 22.79 39.052 22.238 39.052 z" style="stroke: none; stroke-width: 1; stroke-dasharray: none; stroke-linecap: butt; stroke-linejoin: miter; stroke-miterlimit: 10; fill: rgb(0,0,0); fill-rule: nonzero; opacity: 1;" transform=" matrix(1 0 0 1 0 0) " stroke-linecap="round" />
	<path d="M 45.798 39.052 h -14.88 c -0.552 0 -1 -0.448 -1 -1 s 0.448 -1 1 -1 h 14.88 c 0.552 0 1 0.448 1 1 S 46.351 39.052 45.798 39.052 z" style="stroke: none; stroke-width: 1; stroke-dasharray: none; stroke-linecap: butt; stroke-linejoin: miter; stroke-miterlimit: 10; fill: rgb(0,0,0); fill-rule: nonzero; opacity: 1;" transform=" matrix(1 0 0 1 0 0) " stroke-linecap="round" />
	<path d="M 22.238 51.132 H 8.287 c -0.552 0 -1 -0.447 -1 -1 s 0.448 -1 1 -1 h 13.951 c 0.552 0 1 0.447 1 1 S 22.79 51.132 22.238 51.132 z" style="stroke: none; stroke-width: 1; stroke-dasharray: none; stroke-linecap: butt; stroke-linejoin: miter; stroke-miterlimit: 10; fill: rgb(0,0,0); fill-rule: nonzero; opacity: 1;" transform=" matrix(1 0 0 1 0 0) " stroke-linecap="round" />
	<path d="M 37.436 51.132 h -6.517 c -0.552 0 -1 -0.447 -1 -1 s 0.448 -1 1 -1 h 6.517 c 0.552 0 1 0.447 1 1 S 37.988 51.132 37.436 51.132 z" style="stroke: none; stroke-width: 1; stroke-dasharray: none; stroke-linecap: butt; stroke-linejoin: miter; stroke-miterlimit: 10; fill: rgb(0,0,0); fill-rule: nonzero; opacity: 1;" transform=" matrix(1 0 0 1 0 0) " stroke-linecap="round" />
	<path d="M 22.238 63.212 H 8.287 c -0.552 0 -1 -0.447 -1 -1 s 0.448 -1 1 -1 h 13.951 c 0.552 0 1 0.447 1 1 S 22.79 63.212 22.238 63.212 z" style="stroke: none; stroke-width: 1; stroke-dasharray: none; stroke-linecap: butt; stroke-linejoin: miter; stroke-miterlimit: 10; fill: rgb(0,0,0); fill-rule: nonzero; opacity: 1;" transform=" matrix(1 0 0 1 0 0) " stroke-linecap="round" />
	<path d="M 37.436 63.212 h -6.517 c -0.552 0 -1 -0.447 -1 -1 s 0.448 -1 1 -1 h 6.517 c 0.552 0 1 0.447 1 1 S 37.988 63.212 37.436 63.212 z" style="stroke: none; stroke-width: 1; stroke-dasharray: none; stroke-linecap: butt; stroke-linejoin: miter; stroke-miterlimit: 10; fill: rgb(0,0,0); fill-rule: nonzero; opacity: 1;" transform=" matrix(1 0 0 1 0 0) " stroke-linecap="round" />
	<circle cx="66.226" cy="59.566" r="22.776" style="stroke: none; stroke-width: 1; stroke-dasharray: none; stroke-linecap: butt; stroke-linejoin: miter; stroke-miterlimit: 10; fill: rgb(74,164,238); fill-rule: nonzero; opacity: 1;" transform="  matrix(1 0 0 1 0 0) "/>
	<circle cx="66.221" cy="59.56099999999999" r="16.261" style="stroke: none; stroke-width: 1; stroke-dasharray: none; stroke-linecap: butt; stroke-linejoin: miter; stroke-miterlimit: 10; fill: rgb(228,237,244); fill-rule: nonzero; opacity: 1;" transform="  matrix(1 0 0 1 0 0) "/>
	<path d="M 66.224 83.342 c -13.11 0 -23.776 -10.666 -23.776 -23.776 s 10.666 -23.776 23.776 -23.776 S 90 46.455 90 59.565 S 79.334 83.342 66.224 83.342 z M 66.224 37.789 c -12.008 0 -21.776 9.769 -21.776 21.776 s 9.769 21.776 21.776 21.776 S 88 71.573 88 59.565 S 78.231 37.789 66.224 37.789 z" style="stroke: none; stroke-width: 1; stroke-dasharray: none; stroke-linecap: butt; stroke-linejoin: miter; stroke-miterlimit: 10; fill: rgb(0,0,0); fill-rule: nonzero; opacity: 1;" transform=" matrix(1 0 0 1 0 0) " stroke-linecap="round" />
	<path d="M 73.51 66.948 c -0.234 0 -0.469 -0.082 -0.659 -0.248 l -7.286 -6.383 c -0.217 -0.189 -0.341 -0.464 -0.341 -0.752 V 52.1 c 0 -0.553 0.447 -1 1 -1 s 1 0.447 1 1 v 7.013 l 6.945 6.084 c 0.415 0.363 0.457 0.995 0.093 1.411 C 74.064 66.833 73.787 66.948 73.51 66.948 z" style="stroke: none; stroke-width: 1; stroke-dasharray: none; stroke-linecap: butt; stroke-linejoin: miter; stroke-miterlimit: 10; fill: rgb(0,0,0); fill-rule: nonzero; opacity: 1;" transform=" matrix(1 0 0 1 0 0) " stroke-linecap="round" />
	<path d="M 66.224 76.826 c -9.518 0 -17.261 -7.743 -17.261 -17.261 s 7.743 -17.261 17.261 -17.261 s 17.261 7.744 17.261 17.261 S 75.741 76.826 66.224 76.826 z M 66.224 44.304 c -8.415 0 -15.261 6.846 -15.261 15.261 s 6.846 15.261 15.261 15.261 s 15.261 -6.846 15.261 -15.261 S 74.639 44.304 66.224 44.304 z" style="stroke: none; stroke-width: 1; stroke-dasharray: none; stroke-linecap: butt; stroke-linejoin: miter; stroke-miterlimit: 10; fill: rgb(0,0,0); fill-rule: nonzero; opacity: 1;" transform=" matrix(1 0 0 1 0 0) " stroke-linecap="round" />
</g>
</svg>