<svg xmlns="http://www.w3.org/2000/svg" xmlns:xlink="http://www.w3.org/1999/xlink" version="1.1" width="256" height="256" viewBox="0 0 256 256" xml:space="preserve">

<defs>
</defs>
<g style="stroke: none; stroke-width: 0; stroke-dasharray: none; stroke-linecap: butt; stroke-linejoin: miter; stroke-miterlimit: 10; fill: none; fill-rule: nonzero; opacity: 1;" transform="translate(1.4065934065934016 1.4065934065934016) scale(2.81 2.81)" >
	<path d="M 74.568 56.864 V 7.483 c 0 -2.549 -2.067 -4.616 -4.616 -4.616 H 20.048 c -2.549 0 -4.616 2.067 -4.616 4.616 v 49.381 l 15.589 10.109 L 45 60.864 l 14.542 6.033 L 74.568 56.864 z" style="stroke: none; stroke-width: 1; stroke-dasharray: none; stroke-linecap: butt; stroke-linejoin: miter; stroke-miterlimit: 10; fill: rgb(224,228,232); fill-rule: nonzero; opacity: 1;" transform=" matrix(1 0 0 1 0 0) " stroke-linecap="round" />
	<path d="M 86.625 60.562 c -0.895 0 -1.697 -0.515 -2.109 -1.31 c -0.082 -0.158 -0.168 -0.316 -0.258 -0.472 s -0.183 -0.309 -0.28 -0.459 c -0.483 -0.753 -0.527 -1.706 -0.08 -2.481 l 0 0 c 0.65 -1.126 0.264 -2.565 -0.861 -3.215 l -3.118 -1.8 c -1.126 -0.65 -2.565 -0.264 -3.215 0.861 l -0.001 0.001 c -0.441 0.764 -1.271 1.214 -2.152 1.171 c -0.383 -0.019 -0.767 -0.019 -1.152 0 c -0.879 0.043 -1.708 -0.409 -2.148 -1.171 l 0 -0.001 c -0.65 -1.126 -2.089 -1.511 -3.215 -0.861 l -3.118 1.8 c -1.126 0.65 -1.511 2.089 -0.861 3.215 l 0 0.001 c 0.44 0.762 0.417 1.705 -0.06 2.445 c -0.208 0.324 -0.4 0.657 -0.576 0.997 c -0.403 0.784 -1.208 1.278 -2.09 1.278 l -0.001 0 c -1.3 0 -2.354 1.054 -2.354 2.354 v 3.6 c 0 1.3 1.054 2.354 2.354 2.354 l 0 0 c 0.895 0 1.697 0.515 2.109 1.31 c 0.082 0.158 0.168 0.316 0.258 0.472 s 0.183 0.309 0.28 0.459 c 0.483 0.753 0.527 1.706 0.08 2.481 c -0.65 1.126 -0.264 2.565 0.861 3.215 l 3.118 1.8 c 1.126 0.65 2.565 0.264 3.215 -0.861 l 0.001 -0.001 c 0.441 -0.764 1.271 -1.214 2.152 -1.171 c 0.383 0.019 0.767 0.019 1.152 0 c 0.879 -0.043 1.708 0.409 2.148 1.171 l 0 0.001 c 0.65 1.126 2.089 1.511 3.215 0.861 l 3.118 -1.8 c 1.126 -0.65 1.511 -2.089 0.861 -3.215 l 0 -0.001 c -0.44 -0.762 -0.417 -1.705 0.06 -2.445 c 0.208 -0.324 0.4 -0.657 0.576 -0.997 c 0.403 -0.784 1.208 -1.278 2.09 -1.278 l 0.001 0 c 1.3 0 2.354 -1.054 2.354 -2.354 l 0 -3.6 C 88.979 61.616 87.925 60.562 86.625 60.562 z M 76.834 69.661 c -2.731 1.577 -6.224 0.641 -7.801 -2.09 s -0.641 -6.224 2.09 -7.801 s 6.224 -0.641 7.801 2.09 C 80.501 64.592 79.565 68.084 76.834 69.661 z" style="stroke: none; stroke-width: 1; stroke-dasharray: none; stroke-linecap: butt; stroke-linejoin: miter; stroke-miterlimit: 10; fill: rgb(79,191,159); fill-rule: nonzero; opacity: 1;" transform=" matrix(1 0 0 1 0 0) " stroke-linecap="round" />
	<path d="M 28.668 60.562 c -0.895 0 -1.697 -0.515 -2.109 -1.31 c -0.082 -0.158 -0.168 -0.316 -0.258 -0.472 s -0.183 -0.309 -0.28 -0.459 c -0.483 -0.753 -0.527 -1.706 -0.08 -2.481 l 0 0 c 0.65 -1.126 0.264 -2.565 -0.861 -3.215 l -3.118 -1.8 c -1.126 -0.65 -2.565 -0.264 -3.215 0.861 l -0.001 0.001 c -0.441 0.764 -1.271 1.214 -2.152 1.171 c -0.383 -0.019 -0.767 -0.019 -1.152 0 c -0.879 0.043 -1.708 -0.409 -2.148 -1.171 l 0 -0.001 c -0.65 -1.126 -2.089 -1.511 -3.215 -0.861 l -3.118 1.8 c -1.126 0.65 -1.511 2.089 -0.861 3.215 l 0 0.001 c 0.44 0.762 0.417 1.705 -0.06 2.445 c -0.208 0.324 -0.4 0.657 -0.576 0.997 c -0.403 0.784 -1.208 1.278 -2.09 1.278 l -0.001 0 c -1.3 0 -2.354 1.054 -2.354 2.354 l 0 3.6 c 0 1.3 1.054 2.354 2.354 2.354 l 0 0 c 0.895 0 1.697 0.515 2.109 1.31 c 0.082 0.158 0.168 0.316 0.258 0.472 s 0.183 0.309 0.28 0.459 c 0.483 0.753 0.527 1.706 0.08 2.481 c -0.65 1.126 -0.264 2.565 0.861 3.215 l 3.118 1.8 c 1.126 0.65 2.565 0.264 3.215 -0.861 l 0.001 -0.001 c 0.441 -0.764 1.271 -1.214 2.152 -1.171 c 0.383 0.019 0.767 0.019 1.152 0 c 0.879 -0.043 1.708 0.409 2.148 1.171 l 0 0.001 c 0.65 1.126 2.089 1.511 3.215 0.861 l 3.118 -1.8 c 1.126 -0.65 1.511 -2.089 0.861 -3.215 l 0 -0.001 c -0.44 -0.762 -0.417 -1.705 0.06 -2.445 c 0.208 -0.324 0.401 -0.657 0.576 -0.997 c 0.403 -0.784 1.208 -1.278 2.09 -1.278 l 0.001 0 c 1.3 0 2.354 -1.054 2.354 -2.354 l 0 -3.6 C 31.021 61.616 29.968 60.562 28.668 60.562 z M 18.877 69.661 c -2.731 1.577 -6.224 0.641 -7.801 -2.09 s -0.641 -6.224 2.09 -7.801 s 6.224 -0.641 7.801 2.09 C 22.544 64.592 21.608 68.084 18.877 69.661 z" style="stroke: none; stroke-width: 1; stroke-dasharray: none; stroke-linecap: butt; stroke-linejoin: miter; stroke-miterlimit: 10; fill: rgb(46,160,218); fill-rule: nonzero; opacity: 1;" transform=" matrix(1 0 0 1 0 0) " stroke-linecap="round" />
	<path d="M 60.503 64.626 c -1.097 0 -2.081 -0.631 -2.585 -1.605 c -0.1 -0.194 -0.206 -0.387 -0.316 -0.579 c -0.11 -0.191 -0.225 -0.379 -0.343 -0.563 c -0.592 -0.924 -0.646 -2.091 -0.098 -3.041 l 0 0 c 0.797 -1.38 0.324 -3.145 -1.056 -3.941 l -3.822 -2.207 c -1.38 -0.797 -3.145 -0.324 -3.941 1.056 l -0.001 0.001 c -0.54 0.936 -1.558 1.488 -2.638 1.435 c -0.469 -0.023 -0.94 -0.023 -1.412 0 c -1.078 0.052 -2.093 -0.501 -2.633 -1.435 l 0 -0.001 c -0.797 -1.38 -2.561 -1.853 -3.941 -1.056 l -3.822 2.207 c -1.38 0.797 -1.853 2.561 -1.056 3.941 l 0 0.001 c 0.539 0.934 0.511 2.091 -0.073 2.998 c -0.256 0.397 -0.491 0.805 -0.706 1.223 c -0.494 0.961 -1.481 1.567 -2.562 1.567 l -0.001 0 c -1.594 0 -2.885 1.292 -2.885 2.885 v 4.413 c 0 1.593 1.292 2.885 2.885 2.885 l 0 0 c 1.097 0 2.081 0.631 2.585 1.605 c 0.1 0.194 0.206 0.387 0.316 0.579 s 0.225 0.379 0.343 0.563 c 0.592 0.924 0.646 2.091 0.098 3.041 c -0.797 1.38 -0.324 3.145 1.056 3.941 l 3.822 2.206 c 1.38 0.797 3.145 0.324 3.941 -1.056 l 0.001 -0.001 c 0.54 -0.936 1.558 -1.488 2.638 -1.435 c 0.469 0.023 0.94 0.023 1.412 0 c 1.078 -0.052 2.093 0.501 2.633 1.435 l 0 0.001 c 0.797 1.38 2.561 1.853 3.941 1.056 l 3.822 -2.206 c 1.38 -0.797 1.853 -2.561 1.056 -3.941 l 0 -0.001 c -0.539 -0.934 -0.511 -2.091 0.073 -2.998 c 0.256 -0.397 0.491 -0.805 0.706 -1.223 c 0.494 -0.961 1.481 -1.567 2.562 -1.567 h 0.001 c 1.593 0 2.885 -1.292 2.885 -2.885 l 0 -4.413 C 63.389 65.918 62.097 64.626 60.503 64.626 z M 48.5 75.78 c -3.348 1.933 -7.63 0.786 -9.563 -2.562 c -1.933 -3.348 -0.786 -7.63 2.562 -9.563 c 3.348 -1.933 7.63 -0.786 9.563 2.562 C 52.996 69.566 51.848 73.847 48.5 75.78 z" style="stroke: none; stroke-width: 1; stroke-dasharray: none; stroke-linecap: butt; stroke-linejoin: miter; stroke-miterlimit: 10; fill: rgb(251,189,94); fill-rule: nonzero; opacity: 1;" transform=" matrix(1 0 0 1 0 0) " stroke-linecap="round" />
	<path d="M 50.848 88.131 c -1.344 0 -2.653 -0.696 -3.372 -1.941 c -0.353 -0.612 -1.008 -0.982 -1.719 -0.938 c -0.5 0.024 -1.009 0.024 -1.509 0 c -0.713 -0.037 -1.369 0.325 -1.722 0.937 c -1.071 1.854 -3.452 2.492 -5.308 1.424 l -3.822 -2.207 c -0.899 -0.52 -1.542 -1.357 -1.811 -2.359 c -0.269 -1.003 -0.13 -2.05 0.388 -2.948 c 0.354 -0.612 0.325 -1.379 -0.074 -2.002 c -0.126 -0.198 -0.249 -0.398 -0.367 -0.604 c -0.118 -0.204 -0.231 -0.41 -0.338 -0.617 c -0.34 -0.657 -0.99 -1.065 -1.697 -1.065 c -2.142 0 -3.885 -1.743 -3.885 -3.886 v -4.413 c 0 -2.142 1.743 -3.885 3.885 -3.885 c 0.708 0 1.35 -0.393 1.674 -1.024 c 0.23 -0.448 0.485 -0.889 0.755 -1.308 c 0.382 -0.595 0.401 -1.344 0.047 -1.956 c -0.519 -0.899 -0.657 -1.946 -0.389 -2.949 c 0.269 -1.002 0.912 -1.84 1.811 -2.359 l 3.822 -2.206 c 1.854 -1.071 4.235 -0.435 5.308 1.422 c 0.354 0.613 1.021 0.979 1.718 0.938 c 0.501 -0.023 1.007 -0.023 1.508 0 c 0.713 0.042 1.371 -0.323 1.724 -0.936 c 1.072 -1.857 3.451 -2.497 5.309 -1.424 l 3.822 2.206 c 1.855 1.071 2.493 3.452 1.422 5.308 c -0.354 0.612 -0.325 1.38 0.073 2.003 c 0.126 0.195 0.249 0.396 0.367 0.603 c 0.118 0.203 0.232 0.412 0.34 0.622 c 0.338 0.653 0.988 1.062 1.695 1.062 c 2.143 0 3.886 1.743 3.886 3.885 v 4.413 c 0 2.143 -1.743 3.886 -3.886 3.886 c -0.708 0 -1.35 0.393 -1.674 1.023 c -0.229 0.443 -0.481 0.883 -0.753 1.307 c -0.385 0.597 -0.403 1.346 -0.05 1.956 c 1.072 1.856 0.434 4.238 -1.421 5.31 l -3.822 2.207 C 52.173 87.964 51.506 88.131 50.848 88.131 z M 39.156 53.302 c -0.327 0 -0.649 0.086 -0.939 0.254 l -3.822 2.206 c -0.436 0.252 -0.748 0.658 -0.878 1.145 s -0.063 0.994 0.188 1.431 c 0.729 1.265 0.692 2.813 -0.098 4.04 c -0.236 0.366 -0.457 0.749 -0.658 1.139 c -0.668 1.302 -1.991 2.11 -3.451 2.11 c -1.041 0 -1.887 0.846 -1.887 1.885 v 4.413 c 0 1.04 0.846 1.886 1.885 1.886 c 1.458 0 2.789 0.822 3.473 2.146 c 0.094 0.181 0.192 0.359 0.294 0.538 c 0.103 0.178 0.21 0.353 0.32 0.525 c 0.803 1.252 0.849 2.815 0.121 4.078 c -0.252 0.437 -0.319 0.944 -0.188 1.431 s 0.442 0.893 0.878 1.145 l 3.822 2.207 c 0.898 0.52 2.056 0.211 2.575 -0.69 c 0.73 -1.265 2.088 -1.995 3.554 -1.936 c 0.435 0.021 0.877 0.021 1.313 0 c 1.467 -0.065 2.819 0.671 3.548 1.934 c 0.521 0.901 1.675 1.212 2.576 0.692 l 3.822 -2.207 c 0.436 -0.252 0.748 -0.658 0.878 -1.145 c 0.131 -0.486 0.063 -0.994 -0.188 -1.431 c -0.73 -1.264 -0.692 -2.812 0.099 -4.04 c 0.236 -0.368 0.458 -0.752 0.656 -1.139 c 0.669 -1.301 1.992 -2.109 3.452 -2.109 c 1.04 0 1.887 -0.846 1.887 -1.886 v -4.413 c 0 -1.039 -0.846 -1.885 -1.886 -1.885 c -1.458 0 -2.789 -0.822 -3.474 -2.146 c -0.093 -0.182 -0.189 -0.359 -0.292 -0.535 c -0.104 -0.181 -0.21 -0.354 -0.319 -0.524 c -0.806 -1.257 -0.852 -2.821 -0.123 -4.083 c 0.521 -0.9 0.211 -2.056 -0.689 -2.575 l -3.822 -2.206 c -0.437 -0.252 -0.946 -0.32 -1.431 -0.188 c -0.486 0.13 -0.893 0.442 -1.145 0.878 c -0.73 1.266 -2.073 2.01 -3.554 1.936 c -0.435 -0.021 -0.878 -0.021 -1.315 0 c -1.458 0.066 -2.817 -0.67 -3.547 -1.935 c -0.252 -0.437 -0.659 -0.749 -1.145 -0.879 C 39.485 53.323 39.32 53.302 39.156 53.302 z M 45.013 77.717 c -2.767 0 -5.461 -1.436 -6.942 -3.999 c -1.068 -1.851 -1.352 -4.007 -0.799 -6.071 c 0.553 -2.064 1.877 -3.789 3.728 -4.857 c 1.85 -1.068 4.008 -1.354 6.071 -0.799 c 2.063 0.553 3.789 1.877 4.857 3.728 s 1.353 4.006 0.799 6.07 c -0.553 2.064 -1.877 3.789 -3.728 4.858 l 0 0 C 47.743 77.372 46.369 77.717 45.013 77.717 z M 48.5 75.78 h 0.01 H 48.5 z M 44.991 63.715 c -1.04 0 -2.066 0.272 -2.991 0.807 c -1.388 0.801 -2.381 2.095 -2.796 3.643 c -0.415 1.549 -0.202 3.165 0.6 4.554 c 1.653 2.864 5.33 3.85 8.196 2.196 c 1.389 -0.802 2.381 -2.096 2.796 -3.644 s 0.202 -3.165 -0.6 -4.553 c -0.801 -1.389 -2.095 -2.381 -3.643 -2.796 C 46.036 63.783 45.512 63.715 44.991 63.715 z" style="stroke: none; stroke-width: 1; stroke-dasharray: none; stroke-linecap: butt; stroke-linejoin: miter; stroke-miterlimit: 10; fill: rgb(0,0,0); fill-rule: nonzero; opacity: 1;" transform=" matrix(1 0 0 1 0 0) " stroke-linecap="round" />
	<path d="M 69.201 79.94 c -0.568 0 -1.145 -0.145 -1.672 -0.448 l -3.122 -1.803 c -0.479 -0.276 -0.643 -0.888 -0.366 -1.366 c 0.276 -0.479 0.889 -0.643 1.366 -0.366 l 3.122 1.803 c 0.649 0.375 1.48 0.15 1.854 -0.496 c 0.63 -1.093 1.819 -1.734 3.07 -1.673 c 0.351 0.018 0.704 0.018 1.057 0 c 1.26 -0.045 2.435 0.581 3.064 1.672 c 0.374 0.647 1.206 0.872 1.854 0.497 l 3.122 -1.803 c 0.647 -0.374 0.87 -1.205 0.496 -1.854 c -0.631 -1.092 -0.599 -2.43 0.085 -3.491 c 0.191 -0.296 0.367 -0.601 0.526 -0.912 c 0.58 -1.127 1.723 -1.825 2.983 -1.825 c 0.749 0 1.358 -0.608 1.358 -1.356 v -3.605 c 0 -0.748 -0.609 -1.356 -1.357 -1.356 c -1.259 0 -2.408 -0.71 -2.999 -1.852 c -0.076 -0.147 -0.155 -0.291 -0.237 -0.435 c -0.081 -0.139 -0.166 -0.279 -0.254 -0.417 c -0.695 -1.085 -0.734 -2.436 -0.105 -3.525 c 0.374 -0.648 0.151 -1.479 -0.496 -1.854 l -3.122 -1.803 c -0.313 -0.182 -0.678 -0.229 -1.03 -0.136 c -0.35 0.094 -0.643 0.318 -0.823 0.633 c -0.632 1.093 -1.823 1.732 -3.071 1.672 c -0.351 -0.018 -0.704 -0.018 -1.057 0 c -1.279 0.065 -2.435 -0.58 -3.064 -1.672 c -0.374 -0.648 -1.206 -0.871 -1.854 -0.497 l -3.122 1.803 c -0.648 0.374 -0.871 1.205 -0.497 1.854 c 0.631 1.092 0.599 2.43 -0.085 3.491 c -0.19 0.296 -0.367 0.603 -0.528 0.915 c -0.577 1.124 -1.72 1.822 -2.981 1.822 c -0.553 0 -1 -0.447 -1 -1 s 0.447 -1 1 -1 c 0.509 0 0.97 -0.282 1.203 -0.737 c 0.191 -0.37 0.399 -0.731 0.624 -1.082 c 0.276 -0.43 0.29 -0.969 0.036 -1.409 c -0.448 -0.776 -0.567 -1.682 -0.336 -2.548 c 0.232 -0.866 0.788 -1.59 1.564 -2.038 l 3.122 -1.803 c 1.606 -0.925 3.661 -0.373 4.586 1.229 c 0.255 0.44 0.73 0.69 1.235 0.674 c 0.417 -0.02 0.834 -0.02 1.251 0 c 0.507 0.017 0.987 -0.232 1.24 -0.673 c 0.926 -1.604 2.984 -2.153 4.587 -1.23 l 3.122 1.803 c 1.603 0.925 2.153 2.981 1.229 4.586 c -0.254 0.44 -0.232 0.994 0.056 1.445 c 0.104 0.161 0.205 0.327 0.303 0.496 c 0.101 0.174 0.193 0.345 0.282 0.518 c 0.246 0.474 0.715 0.77 1.223 0.77 c 1.852 0 3.357 1.506 3.357 3.356 v 3.605 c 0 1.851 -1.506 3.356 -3.357 3.356 c -0.509 0 -0.971 0.283 -1.205 0.738 c -0.188 0.369 -0.397 0.73 -0.624 1.083 c -0.275 0.428 -0.289 0.967 -0.034 1.407 c 0.925 1.604 0.374 3.661 -1.229 4.586 l -3.122 1.803 c -1.606 0.926 -3.661 0.373 -4.586 -1.229 c -0.254 -0.44 -0.73 -0.69 -1.237 -0.675 c -0.42 0.019 -0.836 0.019 -1.25 0 c -0.51 -0.029 -0.986 0.233 -1.24 0.673 C 71.494 79.339 70.362 79.94 69.201 79.94 z M 73.989 71.433 c -2.323 0 -4.586 -1.204 -5.829 -3.357 c -1.853 -3.209 -0.749 -7.325 2.459 -9.178 c 3.208 -1.851 7.325 -0.75 9.178 2.459 s 0.749 7.325 -2.459 9.178 C 76.282 71.144 75.129 71.433 73.989 71.433 z M 73.972 59.995 c -0.818 0 -1.625 0.215 -2.353 0.635 c -1.092 0.63 -1.872 1.647 -2.198 2.864 c -0.326 1.218 -0.159 2.489 0.472 3.581 c 0.63 1.092 1.647 1.872 2.864 2.198 c 1.221 0.327 2.489 0.157 3.581 -0.472 c 2.253 -1.301 3.027 -4.192 1.727 -6.445 c -0.63 -1.092 -1.647 -1.872 -2.864 -2.198 C 74.793 60.049 74.381 59.995 73.972 59.995 z" style="stroke: none; stroke-width: 1; stroke-dasharray: none; stroke-linecap: butt; stroke-linejoin: miter; stroke-miterlimit: 10; fill: rgb(0,0,0); fill-rule: nonzero; opacity: 1;" transform=" matrix(1 0 0 1 0 0) " stroke-linecap="round" />
	<path d="M 11.245 79.943 c -0.582 0 -1.156 -0.152 -1.673 -0.451 L 6.45 77.689 c -0.776 -0.448 -1.332 -1.172 -1.564 -2.038 c -0.232 -0.866 -0.113 -1.771 0.335 -2.548 c 0.254 -0.44 0.241 -0.979 -0.034 -1.408 c -0.227 -0.352 -0.435 -0.713 -0.625 -1.084 c -0.233 -0.454 -0.695 -0.736 -1.204 -0.736 C 1.506 69.875 0 68.369 0 66.519 v -3.605 c 0 -1.851 1.506 -3.356 3.357 -3.356 c 0.508 0 0.977 -0.295 1.223 -0.771 c 0.09 -0.174 0.183 -0.345 0.281 -0.515 c 0.098 -0.169 0.199 -0.335 0.303 -0.498 c 0.289 -0.451 0.311 -1.005 0.056 -1.445 c -0.448 -0.777 -0.567 -1.682 -0.335 -2.548 c 0.232 -0.866 0.788 -1.59 1.564 -2.038 l 3.122 -1.803 c 0.777 -0.446 1.681 -0.565 2.547 -0.335 c 0.866 0.232 1.59 0.788 2.039 1.564 c 0.254 0.44 0.728 0.695 1.24 0.674 c 0.416 -0.02 0.832 -0.02 1.25 0 c 0.501 0.023 0.982 -0.233 1.236 -0.674 c 0.927 -1.604 2.983 -2.153 4.586 -1.229 l 3.122 1.803 c 0.776 0.448 1.332 1.172 1.564 2.038 c 0.232 0.866 0.113 1.771 -0.335 2.548 c -0.254 0.44 -0.241 0.979 0.034 1.408 c 0.226 0.351 0.434 0.712 0.625 1.082 c 0.234 0.456 0.696 0.738 1.204 0.738 c 0.552 0 1 0.447 1 1 s -0.448 1 -1 1 c -1.261 0 -2.404 -0.698 -2.982 -1.823 c -0.161 -0.311 -0.336 -0.617 -0.528 -0.914 c -0.683 -1.062 -0.716 -2.398 -0.086 -3.491 c 0.182 -0.314 0.23 -0.68 0.136 -1.03 c -0.094 -0.35 -0.318 -0.643 -0.632 -0.823 l -3.122 -1.803 c -0.646 -0.374 -1.479 -0.151 -1.854 0.497 c -0.632 1.094 -1.819 1.735 -3.066 1.672 c -0.354 -0.018 -0.706 -0.019 -1.056 0 c -1.251 0.07 -2.439 -0.579 -3.069 -1.671 c -0.181 -0.314 -0.474 -0.54 -0.825 -0.634 c -0.349 -0.094 -0.716 -0.046 -1.029 0.136 L 7.45 53.475 c -0.314 0.181 -0.539 0.474 -0.632 0.823 c -0.094 0.351 -0.046 0.716 0.136 1.03 c 0.629 1.09 0.589 2.44 -0.104 3.523 c -0.088 0.138 -0.173 0.278 -0.256 0.422 c -0.083 0.143 -0.161 0.286 -0.237 0.432 c -0.59 1.142 -1.74 1.852 -2.999 1.852 C 2.609 61.557 2 62.165 2 62.913 v 3.605 c 0 0.748 0.609 1.356 1.357 1.356 c 1.262 0 2.405 0.698 2.983 1.823 c 0.161 0.313 0.337 0.618 0.528 0.915 c 0.682 1.061 0.715 2.397 0.085 3.49 c -0.182 0.314 -0.23 0.68 -0.136 1.03 c 0.094 0.35 0.318 0.643 0.632 0.823 l 3.123 1.803 c 0.647 0.374 1.479 0.151 1.854 -0.496 c 0.629 -1.093 1.795 -1.718 3.064 -1.673 c 0.353 0.018 0.706 0.018 1.057 0 c 1.264 -0.066 2.438 0.579 3.07 1.672 c 0.375 0.647 1.206 0.873 1.854 0.497 l 3.121 -1.803 c 0.478 -0.277 1.089 -0.113 1.366 0.366 c 0.276 0.479 0.112 1.09 -0.366 1.366 l -3.122 1.803 c -1.605 0.923 -3.661 0.373 -4.585 -1.229 c -0.255 -0.441 -0.74 -0.702 -1.241 -0.675 c -0.416 0.02 -0.832 0.02 -1.25 0 c -0.514 -0.022 -0.983 0.234 -1.236 0.674 c -0.448 0.776 -1.172 1.332 -2.039 1.564 C 11.83 79.904 11.536 79.943 11.245 79.943 z M 16.011 71.438 c -1.165 0 -2.313 -0.306 -3.349 -0.903 l 0 0 c -3.208 -1.853 -4.312 -5.97 -2.459 -9.178 c 0.897 -1.555 2.346 -2.666 4.08 -3.13 c 1.733 -0.466 3.544 -0.227 5.098 0.671 c 3.208 1.853 4.312 5.97 2.459 9.178 c -0.897 1.555 -2.346 2.666 -4.08 3.13 C 17.182 71.36 16.594 71.438 16.011 71.438 z M 16.028 59.995 c -0.41 0 -0.822 0.054 -1.229 0.163 c -1.217 0.326 -2.235 1.106 -2.865 2.198 c -1.301 2.253 -0.526 5.145 1.727 6.445 l 0 0 c 1.091 0.63 2.362 0.8 3.581 0.472 c 1.217 -0.326 2.235 -1.106 2.865 -2.198 c 0.63 -1.092 0.798 -2.363 0.472 -3.58 c -0.326 -1.218 -1.107 -2.235 -2.199 -2.865 C 17.653 60.21 16.846 59.995 16.028 59.995 z" style="stroke: none; stroke-width: 1; stroke-dasharray: none; stroke-linecap: butt; stroke-linejoin: miter; stroke-miterlimit: 10; fill: rgb(0,0,0); fill-rule: nonzero; opacity: 1;" transform=" matrix(1 0 0 1 0 0) " stroke-linecap="round" />
	<path d="M 74.568 47.864 c -0.553 0 -1 -0.447 -1 -1 V 7.483 c 0 -1.994 -1.622 -3.616 -3.616 -3.616 H 20.048 c -1.994 0 -3.616 1.622 -3.616 3.616 v 39.381 c 0 0.553 -0.448 1 -1 1 s -1 -0.447 -1 -1 V 7.483 c 0 -3.097 2.519 -5.616 5.616 -5.616 h 49.904 c 3.097 0 5.616 2.52 5.616 5.616 v 39.381 C 75.568 47.417 75.121 47.864 74.568 47.864 z" style="stroke: none; stroke-width: 1; stroke-dasharray: none; stroke-linecap: butt; stroke-linejoin: miter; stroke-miterlimit: 10; fill: rgb(0,0,0); fill-rule: nonzero; opacity: 1;" transform=" matrix(1 0 0 1 0 0) " stroke-linecap="round" />
	<rect x="23.74" y="10.95" rx="0" ry="0" width="12.58" height="12.58" style="stroke: none; stroke-width: 1; stroke-dasharray: none; stroke-linecap: butt; stroke-linejoin: miter; stroke-miterlimit: 10; fill: rgb(79,191,159); fill-rule: nonzero; opacity: 1;" transform=" matrix(1 0 0 1 0 0) "/>
	<rect x="23.74" y="30.25" rx="0" ry="0" width="12.58" height="12.58" style="stroke: none; stroke-width: 1; stroke-dasharray: none; stroke-linecap: butt; stroke-linejoin: miter; stroke-miterlimit: 10; fill: rgb(251,189,94); fill-rule: nonzero; opacity: 1;" transform=" matrix(1 0 0 1 0 0) "/>
	<path d="M 36.65 24.854 H 23.741 c -0.552 0 -1 -0.448 -1 -1 V 10.944 c 0 -0.552 0.448 -1 1 -1 h 9.01 c 0.552 0 1 0.448 1 1 s -0.448 1 -1 1 h -8.01 v 10.909 H 35.65 v -3.562 c 0 -0.552 0.448 -1 1 -1 s 1 0.448 1 1 v 4.562 C 37.65 24.406 37.202 24.854 36.65 24.854 z" style="stroke: none; stroke-width: 1; stroke-dasharray: none; stroke-linecap: butt; stroke-linejoin: miter; stroke-miterlimit: 10; fill: rgb(0,0,0); fill-rule: nonzero; opacity: 1;" transform=" matrix(1 0 0 1 0 0) " stroke-linecap="round" />
	<path d="M 30.695 20.548 c -0.019 0 -0.038 0 -0.057 -0.001 c -0.295 -0.017 -0.567 -0.164 -0.744 -0.4 l -2.712 -3.629 c -0.331 -0.442 -0.24 -1.069 0.203 -1.4 c 0.443 -0.33 1.068 -0.239 1.4 0.203 l 2 2.676 l 7.296 -7.738 c 0.379 -0.402 1.012 -0.42 1.414 -0.042 c 0.402 0.379 0.42 1.012 0.042 1.414 l -8.112 8.604 C 31.233 20.435 30.97 20.548 30.695 20.548 z" style="stroke: none; stroke-width: 1; stroke-dasharray: none; stroke-linecap: butt; stroke-linejoin: miter; stroke-miterlimit: 10; fill: rgb(0,0,0); fill-rule: nonzero; opacity: 1;" transform=" matrix(1 0 0 1 0 0) " stroke-linecap="round" />
	<path d="M 36.65 44.155 H 23.741 c -0.552 0 -1 -0.448 -1 -1 V 30.246 c 0 -0.552 0.448 -1 1 -1 h 9.01 c 0.552 0 1 0.448 1 1 s -0.448 1 -1 1 h -8.01 v 10.909 H 35.65 v -3.562 c 0 -0.552 0.448 -1 1 -1 s 1 0.448 1 1 v 4.562 C 37.65 43.708 37.202 44.155 36.65 44.155 z" style="stroke: none; stroke-width: 1; stroke-dasharray: none; stroke-linecap: butt; stroke-linejoin: miter; stroke-miterlimit: 10; fill: rgb(0,0,0); fill-rule: nonzero; opacity: 1;" transform=" matrix(1 0 0 1 0 0) " stroke-linecap="round" />
	<path d="M 30.695 39.849 c -0.019 0 -0.038 0 -0.057 -0.001 c -0.295 -0.017 -0.567 -0.163 -0.744 -0.4 l -2.712 -3.628 c -0.331 -0.442 -0.24 -1.069 0.202 -1.399 c 0.443 -0.331 1.068 -0.24 1.399 0.202 l 2 2.675 l 7.296 -7.737 c 0.379 -0.402 1.012 -0.42 1.414 -0.042 s 0.42 1.012 0.042 1.414 l -8.112 8.603 C 31.233 39.736 30.97 39.849 30.695 39.849 z" style="stroke: none; stroke-width: 1; stroke-dasharray: none; stroke-linecap: butt; stroke-linejoin: miter; stroke-miterlimit: 10; fill: rgb(0,0,0); fill-rule: nonzero; opacity: 1;" transform=" matrix(1 0 0 1 0 0) " stroke-linecap="round" />
	<path d="M 65.268 18.899 H 43.563 c -0.552 0 -1 -0.448 -1 -1 s 0.448 -1 1 -1 h 21.705 c 0.553 0 1 0.448 1 1 S 65.82 18.899 65.268 18.899 z" style="stroke: none; stroke-width: 1; stroke-dasharray: none; stroke-linecap: butt; stroke-linejoin: miter; stroke-miterlimit: 10; fill: rgb(0,0,0); fill-rule: nonzero; opacity: 1;" transform=" matrix(1 0 0 1 0 0) " stroke-linecap="round" />
	<path d="M 65.268 38.201 H 43.563 c -0.552 0 -1 -0.448 -1 -1 s 0.448 -1 1 -1 h 21.705 c 0.553 0 1 0.448 1 1 S 65.82 38.201 65.268 38.201 z" style="stroke: none; stroke-width: 1; stroke-dasharray: none; stroke-linecap: butt; stroke-linejoin: miter; stroke-miterlimit: 10; fill: rgb(0,0,0); fill-rule: nonzero; opacity: 1;" transform=" matrix(1 0 0 1 0 0) " stroke-linecap="round" />
</g>
</svg>