<svg xmlns="http://www.w3.org/2000/svg" xmlns:xlink="http://www.w3.org/1999/xlink" version="1.1" width="256" height="256" viewBox="0 0 256 256" xml:space="preserve">

<defs>
</defs>
<g style="stroke: none; stroke-width: 0; stroke-dasharray: none; stroke-linecap: butt; stroke-linejoin: miter; stroke-miterlimit: 10; fill: none; fill-rule: nonzero; opacity: 1;" transform="translate(1.4065934065934016 1.4065934065934016) scale(2.81 2.81)" >
	<path d="M 62.104 8.641 c 0 -4.169 -3.379 -7.548 -7.548 -7.548 s -7.548 3.379 -7.548 7.548 c 0 3.657 2.602 6.706 6.055 7.399 c -0.005 0.05 -0.015 0.098 -0.015 0.149 v 21.262 c 0 0.051 0.01 0.099 0.015 0.149 c -3.453 0.693 -6.055 3.742 -6.055 7.399 s 2.602 6.706 6.055 7.399 c -0.005 0.05 -0.015 0.098 -0.015 0.149 V 73.81 c 0 0.051 0.01 0.099 0.015 0.149 c -3.453 0.693 -6.055 3.742 -6.055 7.399 c 0 4.169 3.379 7.548 7.548 7.548 s 7.548 -3.379 7.548 -7.548 c 0 -3.657 -2.601 -6.706 -6.055 -7.399 c 0.005 -0.05 0.015 -0.098 0.015 -0.149 V 52.548 c 0 -0.051 -0.01 -0.099 -0.015 -0.149 c 3.453 -0.693 6.055 -3.742 6.055 -7.399 s -2.601 -6.706 -6.055 -7.399 c 0.005 -0.05 0.015 -0.098 0.015 -0.149 V 16.19 c 0 -0.051 -0.01 -0.099 -0.015 -0.149 C 59.503 15.347 62.104 12.299 62.104 8.641 z" style="stroke: none; stroke-width: 1; stroke-dasharray: none; stroke-linecap: butt; stroke-linejoin: miter; stroke-miterlimit: 10; fill: rgb(0,0,0); fill-rule: nonzero; opacity: 1;" transform=" matrix(1 0 0 1 0 0) " stroke-linecap="round" />
	<path d="M 19.689 25.311 C 8.815 25.311 0 34.126 0 45 s 8.815 19.689 19.689 19.689 c 10.874 0 19.689 -8.815 19.689 -19.689 S 30.563 25.311 19.689 25.311 z M 28.674 52.871 c -0.299 0.341 -0.716 0.515 -1.135 0.515 c -0.353 0 -0.707 -0.123 -0.993 -0.374 l -7.85 -6.877 c -0.327 -0.286 -0.515 -0.7 -0.515 -1.134 V 33.203 c 0 -0.833 0.675 -1.508 1.508 -1.508 s 1.508 0.675 1.508 1.508 v 11.112 l 7.336 6.427 C 29.16 51.292 29.223 52.244 28.674 52.871 z" style="stroke: none; stroke-width: 1; stroke-dasharray: none; stroke-linecap: butt; stroke-linejoin: miter; stroke-miterlimit: 10; fill: rgb(0,0,0); fill-rule: nonzero; opacity: 1;" transform=" matrix(1 0 0 1 0 0) " stroke-linecap="round" />
	<path d="M 69.741 6.276 h 18.751 C 89.324 6.276 90 5.6 90 4.767 s -0.676 -1.508 -1.508 -1.508 H 69.741 c -0.833 0 -1.508 0.675 -1.508 1.508 S 68.908 6.276 69.741 6.276 z" style="stroke: none; stroke-width: 1; stroke-dasharray: none; stroke-linecap: butt; stroke-linejoin: miter; stroke-miterlimit: 10; fill: rgb(0,0,0); fill-rule: nonzero; opacity: 1;" transform=" matrix(1 0 0 1 0 0) " stroke-linecap="round" />
	<path d="M 88.492 39.618 H 69.741 c -0.833 0 -1.508 0.675 -1.508 1.508 s 0.676 1.508 1.508 1.508 h 18.751 c 0.833 0 1.508 -0.675 1.508 -1.508 S 89.324 39.618 88.492 39.618 z" style="stroke: none; stroke-width: 1; stroke-dasharray: none; stroke-linecap: butt; stroke-linejoin: miter; stroke-miterlimit: 10; fill: rgb(0,0,0); fill-rule: nonzero; opacity: 1;" transform=" matrix(1 0 0 1 0 0) " stroke-linecap="round" />
	<path d="M 88.492 75.976 H 69.741 c -0.833 0 -1.508 0.676 -1.508 1.508 c 0 0.833 0.676 1.508 1.508 1.508 h 18.751 c 0.833 0 1.508 -0.676 1.508 -1.508 C 90 76.651 89.324 75.976 88.492 75.976 z" style="stroke: none; stroke-width: 1; stroke-dasharray: none; stroke-linecap: butt; stroke-linejoin: miter; stroke-miterlimit: 10; fill: rgb(0,0,0); fill-rule: nonzero; opacity: 1;" transform=" matrix(1 0 0 1 0 0) " stroke-linecap="round" />
	<path d="M 85.909 83.724 H 69.741 c -0.833 0 -1.508 0.676 -1.508 1.508 s 0.676 1.508 1.508 1.508 h 16.168 c 0.833 0 1.508 -0.676 1.508 -1.508 S 86.742 83.724 85.909 83.724 z" style="stroke: none; stroke-width: 1; stroke-dasharray: none; stroke-linecap: butt; stroke-linejoin: miter; stroke-miterlimit: 10; fill: rgb(0,0,0); fill-rule: nonzero; opacity: 1;" transform=" matrix(1 0 0 1 0 0) " stroke-linecap="round" />
	<path d="M 69.741 50.382 h 9.711 c 0.833 0 1.508 -0.676 1.508 -1.508 c 0 -0.833 -0.676 -1.508 -1.508 -1.508 h -9.711 c -0.833 0 -1.508 0.676 -1.508 1.508 C 68.233 49.707 68.908 50.382 69.741 50.382 z" style="stroke: none; stroke-width: 1; stroke-dasharray: none; stroke-linecap: butt; stroke-linejoin: miter; stroke-miterlimit: 10; fill: rgb(0,0,0); fill-rule: nonzero; opacity: 1;" transform=" matrix(1 0 0 1 0 0) " stroke-linecap="round" />
	<path d="M 69.741 14.024 h 13.585 c 0.833 0 1.508 -0.675 1.508 -1.508 s -0.676 -1.508 -1.508 -1.508 H 69.741 c -0.833 0 -1.508 0.675 -1.508 1.508 S 68.908 14.024 69.741 14.024 z" style="stroke: none; stroke-width: 1; stroke-dasharray: none; stroke-linecap: butt; stroke-linejoin: miter; stroke-miterlimit: 10; fill: rgb(0,0,0); fill-rule: nonzero; opacity: 1;" transform=" matrix(1 0 0 1 0 0) " stroke-linecap="round" />
</g>
</svg>