<svg xmlns="http://www.w3.org/2000/svg" xmlns:xlink="http://www.w3.org/1999/xlink" version="1.1" width="256" height="256" viewBox="0 0 256 256" xml:space="preserve">

<defs>
</defs>
<g style="stroke: none; stroke-width: 0; stroke-dasharray: none; stroke-linecap: butt; stroke-linejoin: miter; stroke-miterlimit: 10; fill: none; fill-rule: nonzero; opacity: 1;" transform="translate(1.4065934065934016 1.4065934065934016) scale(2.81 2.81)" >
	<path d="M 63.414 22.272 C 77.545 22.272 89 33.727 89 47.858 v 0 c 0 14.131 -11.455 25.586 -25.586 25.586 H 26.586 C 12.455 73.444 1 61.989 1 47.858 v 0 c 0 -14.131 11.455 -25.586 25.586 -25.586 H 63.414" style="stroke: none; stroke-width: 1; stroke-dasharray: none; stroke-linecap: butt; stroke-linejoin: miter; stroke-miterlimit: 10; fill: rgb(114,204,82); fill-rule: nonzero; opacity: 1;" transform=" matrix(1 0 0 1 0 0) " stroke-linecap="round" />
	<path d="M 63.414 74.443 H 26.586 C 11.926 74.443 0 62.517 0 47.857 s 11.926 -26.585 26.586 -26.585 h 45.828 c 0.553 0 1 0.448 1 1 s -0.447 1 -1 1 H 26.586 C 13.029 23.272 2 34.301 2 47.857 s 11.029 24.586 24.586 24.586 h 36.828 C 76.971 72.443 88 61.414 88 47.857 c 0 -4.163 -1.06 -8.276 -3.063 -11.895 c -0.268 -0.483 -0.093 -1.092 0.391 -1.359 c 0.481 -0.268 1.092 -0.093 1.359 0.391 C 88.854 38.909 90 43.357 90 47.857 C 90 62.517 78.073 74.443 63.414 74.443 z" style="stroke: none; stroke-width: 1; stroke-dasharray: none; stroke-linecap: butt; stroke-linejoin: miter; stroke-miterlimit: 10; fill: rgb(0,0,0); fill-rule: nonzero; opacity: 1;" transform=" matrix(1 0 0 1 0 0) " stroke-linecap="round" />
	<path d="M 64.488 28.987 c -0.311 0 -0.616 -0.144 -0.813 -0.415 c -0.322 -0.448 -0.222 -1.073 0.227 -1.396 l 6.802 -4.904 l -6.802 -4.905 c -0.448 -0.323 -0.549 -0.948 -0.227 -1.396 c 0.323 -0.448 0.948 -0.55 1.396 -0.226 l 7.927 5.716 c 0.261 0.188 0.415 0.49 0.415 0.811 s -0.154 0.623 -0.415 0.811 l -7.927 5.715 C 64.896 28.926 64.69 28.987 64.488 28.987 z" style="stroke: none; stroke-width: 1; stroke-dasharray: none; stroke-linecap: butt; stroke-linejoin: miter; stroke-miterlimit: 10; fill: rgb(0,0,0); fill-rule: nonzero; opacity: 1;" transform=" matrix(1 0 0 1 0 0) " stroke-linecap="round" />
	<path d="M 13.5 56.874 c -0.552 0 -1 -0.447 -1 -1 V 41.353 c 0 -0.552 0.448 -1 1 -1 h 5.882 c 2.278 0 4.131 1.853 4.131 4.131 v 1.229 c 0 2.151 -1.75 3.901 -3.901 3.901 H 14.5 v 6.261 C 14.5 56.427 14.052 56.874 13.5 56.874 z M 14.5 47.613 h 5.112 c 1.048 0 1.901 -0.853 1.901 -1.901 v -1.229 c 0 -1.175 -0.956 -2.131 -2.131 -2.131 H 14.5 V 47.613 z" style="stroke: none; stroke-width: 1; stroke-dasharray: none; stroke-linecap: butt; stroke-linejoin: miter; stroke-miterlimit: 10; fill: rgb(0,0,0); fill-rule: nonzero; opacity: 1;" transform=" matrix(1 0 0 1 0 0) " stroke-linecap="round" />
	<path d="M 22.514 56.874 c -0.334 0 -0.661 -0.168 -0.851 -0.473 l -4.507 -7.261 c -0.292 -0.469 -0.147 -1.086 0.322 -1.377 c 0.468 -0.29 1.085 -0.146 1.377 0.322 l 4.507 7.261 c 0.292 0.469 0.147 1.086 -0.322 1.377 C 22.876 56.825 22.694 56.874 22.514 56.874 z" style="stroke: none; stroke-width: 1; stroke-dasharray: none; stroke-linecap: butt; stroke-linejoin: miter; stroke-miterlimit: 10; fill: rgb(0,0,0); fill-rule: nonzero; opacity: 1;" transform=" matrix(1 0 0 1 0 0) " stroke-linecap="round" />
	<path d="M 46.11 56.874 h -4.739 c -0.552 0 -1 -0.447 -1 -1 s 0.448 -1 1 -1 h 4.739 c 0.839 0 1.521 -0.683 1.521 -1.521 v -2.217 c 0 -0.84 -0.683 -1.522 -1.521 -1.522 h -2.639 c -1.942 0 -3.522 -1.58 -3.522 -3.521 v -2.217 c 0 -1.942 1.58 -3.522 3.522 -3.522 h 3.401 c 0.553 0 1 0.448 1 1 s -0.447 1 -1 1 h -3.401 c -0.839 0 -1.522 0.683 -1.522 1.522 v 2.217 c 0 0.839 0.683 1.521 1.522 1.521 h 2.639 c 1.941 0 3.521 1.58 3.521 3.522 v 2.217 C 49.632 55.294 48.052 56.874 46.11 56.874 z" style="stroke: none; stroke-width: 1; stroke-dasharray: none; stroke-linecap: butt; stroke-linejoin: miter; stroke-miterlimit: 10; fill: rgb(0,0,0); fill-rule: nonzero; opacity: 1;" transform=" matrix(1 0 0 1 0 0) " stroke-linecap="round" />
	<path d="M 76.5 42.353 h -9.013 c -0.553 0 -1 -0.448 -1 -1 s 0.447 -1 1 -1 H 76.5 c 0.553 0 1 0.448 1 1 S 77.053 42.353 76.5 42.353 z" style="stroke: none; stroke-width: 1; stroke-dasharray: none; stroke-linecap: butt; stroke-linejoin: miter; stroke-miterlimit: 10; fill: rgb(0,0,0); fill-rule: nonzero; opacity: 1;" transform=" matrix(1 0 0 1 0 0) " stroke-linecap="round" />
	<path d="M 71.993 56.874 c -0.553 0 -1 -0.447 -1 -1 V 41.353 c 0 -0.552 0.447 -1 1 -1 s 1 0.448 1 1 v 14.521 C 72.993 56.427 72.546 56.874 71.993 56.874 z" style="stroke: none; stroke-width: 1; stroke-dasharray: none; stroke-linecap: butt; stroke-linejoin: miter; stroke-miterlimit: 10; fill: rgb(0,0,0); fill-rule: nonzero; opacity: 1;" transform=" matrix(1 0 0 1 0 0) " stroke-linecap="round" />
	<path d="M 35.821 56.874 h -6.438 c -0.552 0 -1 -0.447 -1 -1 V 41.353 c 0 -0.552 0.448 -1 1 -1 h 6.438 c 0.552 0 1 0.448 1 1 s -0.448 1 -1 1 h -5.438 v 12.521 h 5.438 c 0.552 0 1 0.447 1 1 S 36.374 56.874 35.821 56.874 z" style="stroke: none; stroke-width: 1; stroke-dasharray: none; stroke-linecap: butt; stroke-linejoin: miter; stroke-miterlimit: 10; fill: rgb(0,0,0); fill-rule: nonzero; opacity: 1;" transform=" matrix(1 0 0 1 0 0) " stroke-linecap="round" />
	<path d="M 33.595 49.613 h -4.211 c -0.552 0 -1 -0.447 -1 -1 s 0.448 -1 1 -1 h 4.211 c 0.552 0 1 0.447 1 1 S 34.147 49.613 33.595 49.613 z" style="stroke: none; stroke-width: 1; stroke-dasharray: none; stroke-linecap: butt; stroke-linejoin: miter; stroke-miterlimit: 10; fill: rgb(0,0,0); fill-rule: nonzero; opacity: 1;" transform=" matrix(1 0 0 1 0 0) " stroke-linecap="round" />
	<path d="M 61.602 56.874 h -6.438 c -0.553 0 -1 -0.447 -1 -1 V 41.353 c 0 -0.552 0.447 -1 1 -1 h 6.438 c 0.553 0 1 0.448 1 1 s -0.447 1 -1 1 h -5.438 v 12.521 h 5.438 c 0.553 0 1 0.447 1 1 S 62.154 56.874 61.602 56.874 z" style="stroke: none; stroke-width: 1; stroke-dasharray: none; stroke-linecap: butt; stroke-linejoin: miter; stroke-miterlimit: 10; fill: rgb(0,0,0); fill-rule: nonzero; opacity: 1;" transform=" matrix(1 0 0 1 0 0) " stroke-linecap="round" />
	<path d="M 59.375 49.613 h -4.211 c -0.553 0 -1 -0.447 -1 -1 s 0.447 -1 1 -1 h 4.211 c 0.553 0 1 0.447 1 1 S 59.928 49.613 59.375 49.613 z" style="stroke: none; stroke-width: 1; stroke-dasharray: none; stroke-linecap: butt; stroke-linejoin: miter; stroke-miterlimit: 10; fill: rgb(0,0,0); fill-rule: nonzero; opacity: 1;" transform=" matrix(1 0 0 1 0 0) " stroke-linecap="round" />
</g>
</svg>